<?xml version="1.0" encoding="utf-8"?>
<!-- Generator: Adobe Illustrator 25.0.1, SVG Export Plug-In . SVG Version: 6.00 Build 0)  -->
<svg version="1.1" id="Layer_1" xmlns="http://www.w3.org/2000/svg" xmlns:xlink="http://www.w3.org/1999/xlink" x="0px" y="0px"
	 viewBox="0 0 68.4 60" style="enable-background:new 0 0 68.4 60;" xml:space="preserve">
<style type="text/css">
	.st0{fill:url(#SVGID_1_);}
	.st1{fill:url(#SVGID_2_);}
</style>
<g>
	<linearGradient id="SVGID_1_" gradientUnits="userSpaceOnUse" x1="7.8112" y1="46.5101" x2="77.5615" y2="11.061">
		<stop  offset="4.096436e-02" style="stop-color:#4F300F"/>
		<stop  offset="0.4716" style="stop-color:#A87734"/>
		<stop  offset="0.6817" style="stop-color:#FEDB6B"/>
		<stop  offset="0.8369" style="stop-color:#C2A14C"/>
		<stop  offset="0.9782" style="stop-color:#4F300F"/>
	</linearGradient>
	<path class="st0" d="M51.7,17.5H45v-0.7c0-3.1-2.5-5.6-5.6-5.6H28.9c-3.1,0-5.6,2.5-5.6,5.6v0.7h-6.7c-3.1,0-5.6,2.5-5.6,5.6v20.2
		c0,3.1,2.5,5.6,5.6,5.6h35.1c3.1,0,5.6-2.5,5.6-5.6V23C57.3,20,54.8,17.5,51.7,17.5z M34.2,43c-5.8,0-10.5-4.7-10.5-10.5
		c0-5.8,4.7-10.5,10.5-10.5s10.5,4.7,10.5,10.5S40,43,34.2,43z M39.7,32.5c0,3.1-2.5,5.6-5.6,5.6s-5.6-2.5-5.6-5.6
		c0-3.1,2.5-5.6,5.6-5.6S39.7,29.4,39.7,32.5z"/>
</g>
</svg>
