<?xml version="1.0" encoding="utf-8"?>
<!-- Generator: Adobe Illustrator 24.0.1, SVG Export Plug-In . SVG Version: 6.00 Build 0)  -->
<svg version="1.1" id="Capa_1" xmlns="http://www.w3.org/2000/svg" xmlns:xlink="http://www.w3.org/1999/xlink" x="0px" y="0px"
	 viewBox="0 0 44.5 44.5" style="enable-background:new 0 0 44.5 44.5;" xml:space="preserve">
<style type="text/css">
	.st0{fill:#FFFFFF;}
</style>
<g>
	<g>
		<path class="st0" d="M9.9,35.6h24.8c0-5.5-3.9-10.2-9.1-11.6c2.8-1.2,4.7-4,4.7-7.2c0-4.4-3.6-7.9-7.9-7.9c-4.4,0-7.9,3.6-7.9,7.9
			c0,3.2,1.9,6,4.7,7.2C13.7,25.4,9.9,30.1,9.9,35.6z"/>
		<path class="st0" d="M1.5,14.2c0.8,0,1.5-0.7,1.5-1.5V4.3h8.3c0.8,0,1.5-0.7,1.5-1.5s-0.7-1.5-1.5-1.5H2.8C1.2,1.3,0,2.6,0,4.1
			v8.6C0,13.5,0.7,14.2,1.5,14.2z"/>
		<path class="st0" d="M41.7,1.3h-8.6c-0.8,0-1.5,0.7-1.5,1.5s0.7,1.5,1.5,1.5h8.3v8.3c0,0.8,0.7,1.5,1.5,1.5s1.5-0.7,1.5-1.5V4.1
			C44.5,2.6,43.3,1.3,41.7,1.3z"/>
		<path class="st0" d="M43,30.3c-0.8,0-1.5,0.7-1.5,1.5v8.3h-8.3c-0.8,0-1.5,0.7-1.5,1.5s0.7,1.5,1.5,1.5h8.6c1.5,0,2.8-1.2,2.8-2.8
			v-8.6C44.5,31,43.8,30.3,43,30.3z"/>
		<path class="st0" d="M11.3,40.2H3v-8.3c0-0.8-0.7-1.5-1.5-1.5C0.7,30.3,0,31,0,31.8v8.6c0,1.5,1.2,2.8,2.8,2.8h8.6
			c0.8,0,1.5-0.7,1.5-1.5S12.2,40.2,11.3,40.2z"/>
	</g>
</g>
</svg>
