<?xml version="1.0" encoding="utf-8"?>
<!-- Generator: Adobe Illustrator 24.0.1, SVG Export Plug-In . SVG Version: 6.00 Build 0)  -->
<svg version="1.1" id="Layer_1" xmlns="http://www.w3.org/2000/svg" xmlns:xlink="http://www.w3.org/1999/xlink" x="0px" y="0px"
	 viewBox="0 0 68.4 60" style="enable-background:new 0 0 68.4 60;" xml:space="preserve">
<style type="text/css">
	.st0{fill:url(#SVGID_1_);}
	.st1{fill:url(#SVGID_2_);}
	.st2{fill:url(#SVGID_3_);}
	.st3{fill:url(#SVGID_4_);}
</style>
<g>
	<g>
		<g>
			<linearGradient id="SVGID_1_" gradientUnits="userSpaceOnUse" x1="25.3627" y1="16.6291" x2="43.173" y2="7.5543">
				<stop  offset="4.096436e-02" style="stop-color:#4F300F"/>
				<stop  offset="0.4716" style="stop-color:#A87734"/>
				<stop  offset="0.6817" style="stop-color:#FEDB6B"/>
				<stop  offset="0.8369" style="stop-color:#C2A14C"/>
				<stop  offset="0.9782" style="stop-color:#4F300F"/>
			</linearGradient>
			<path class="st0" d="M25.8,16.4h16.7c0.5,0,0.9-0.4,0.9-0.9V8.2H24.9v7.4C24.9,16,25.3,16.4,25.8,16.4z"/>
			<linearGradient id="SVGID_2_" gradientUnits="userSpaceOnUse" x1="8.5954" y1="43.6291" x2="56.055" y2="19.4472">
				<stop  offset="4.096436e-02" style="stop-color:#4F300F"/>
				<stop  offset="0.4716" style="stop-color:#A87734"/>
				<stop  offset="0.6817" style="stop-color:#FEDB6B"/>
				<stop  offset="0.8369" style="stop-color:#C2A14C"/>
				<stop  offset="0.9782" style="stop-color:#4F300F"/>
			</linearGradient>
			<path class="st1" d="M55.9,19.4L46.5,10v5.6c0,2.1-1.7,3.9-3.9,3.9H25.8c-2.1,0-3.9-1.7-3.9-3.9V8.2h-6c-2.3,0-4.1,1.8-4.1,4.1
				v36.6c0,2.3,1.8,4.1,4.1,4.1h36.6c2.3,0,4.1-1.8,4.1-4.1V21.1C56.6,20.5,56.4,19.9,55.9,19.4z M49.7,43.6c0,1.3-1.1,2.4-2.4,2.4
				H21.2c-1.3,0-2.4-1.1-2.4-2.4V31.1c0-1.3,1.1-2.4,2.4-2.4h26.1c1.3,0,2.4,1.1,2.4,2.4V43.6z"/>
			<linearGradient id="SVGID_3_" gradientUnits="userSpaceOnUse" x1="24.6797" y1="38.8468" x2="43.7126" y2="29.1491">
				<stop  offset="4.096436e-02" style="stop-color:#4F300F"/>
				<stop  offset="0.4716" style="stop-color:#A87734"/>
				<stop  offset="0.6817" style="stop-color:#FEDB6B"/>
				<stop  offset="0.8369" style="stop-color:#C2A14C"/>
				<stop  offset="0.9782" style="stop-color:#4F300F"/>
			</linearGradient>
			<path class="st2" d="M44.5,32.5H23.9c-0.8,0-1.5,0.7-1.5,1.5s0.7,1.5,1.5,1.5h20.6c0.8,0,1.5-0.7,1.5-1.5S45.3,32.5,44.5,32.5z"
				/>
			<linearGradient id="SVGID_4_" gradientUnits="userSpaceOnUse" x1="27.0569" y1="43.6243" x2="41.3447" y2="36.3443">
				<stop  offset="4.096436e-02" style="stop-color:#4F300F"/>
				<stop  offset="0.4716" style="stop-color:#A87734"/>
				<stop  offset="0.6817" style="stop-color:#FEDB6B"/>
				<stop  offset="0.8369" style="stop-color:#C2A14C"/>
				<stop  offset="0.9782" style="stop-color:#4F300F"/>
			</linearGradient>
			<path class="st3" d="M41.5,38.5H26.9c-0.8,0-1.5,0.7-1.5,1.5c0,0.8,0.7,1.5,1.5,1.5h14.6c0.8,0,1.5-0.7,1.5-1.5
				C43,39.1,42.3,38.5,41.5,38.5z"/>
		</g>
	</g>
</g>
</svg>
