<?xml version="1.0" encoding="utf-8"?>
<!-- Generator: Adobe Illustrator 25.0.1, SVG Export Plug-In . SVG Version: 6.00 Build 0)  -->
<svg version="1.1" id="Layer_1" xmlns="http://www.w3.org/2000/svg" xmlns:xlink="http://www.w3.org/1999/xlink" x="0px" y="0px"
	 viewBox="0 0 68.4 60" style="enable-background:new 0 0 68.4 60;" xml:space="preserve">
<style type="text/css">
	.st0{fill:url(#SVGID_1_);}
	.st1{fill:url(#SVGID_2_);}
</style>
<g>
	<g>
		<linearGradient id="SVGID_1_" gradientUnits="userSpaceOnUse" x1="9.5578" y1="40.2771" x2="72.3931" y2="14.0449">
			<stop  offset="4.096436e-02" style="stop-color:#4F300F"/>
			<stop  offset="0.4716" style="stop-color:#A87734"/>
			<stop  offset="0.7636" style="stop-color:#FEDB6B"/>
			<stop  offset="0.8369" style="stop-color:#C2A14C"/>
			<stop  offset="0.9782" style="stop-color:#4F300F"/>
		</linearGradient>
		<path class="st0" d="M52.1,13.7H16.3c-2.7,0-4.9,2.2-4.9,4.9v22.8c0,2.7,2.2,4.9,4.9,4.9h35.8c2.7,0,4.9-2.2,4.9-4.9V18.6
			C57,15.9,54.8,13.7,52.1,13.7z M53.7,32.6L43.5,22.3c-0.6-0.6-1.7-0.6-2.3,0L27.7,35.8l-5.4-5.4c-0.6-0.6-1.7-0.6-2.3,0l-5.4,5.4
			V18.6c0-0.9,0.7-1.6,1.6-1.6h35.8c0.9,0,1.6,0.7,1.6,1.6L53.7,32.6L53.7,32.6z"/>
	</g>
</g>
</svg>
