<svg xmlns="http://www.w3.org/2000/svg" xmlns:xlink="http://www.w3.org/1999/xlink" viewBox="0 0 32.67 36.01"><defs><style>.cls-1{mask:url(#mask);filter:url(#luminosity-noclip-2);}.cls-2{mix-blend-mode:multiply;fill:url(#linear-gradient);}.cls-3{isolation:isolate;}.cls-4{opacity:0.66;}.cls-5{fill:url(#Безымянный_градиент_5);}.cls-6{fill:url(#radial-gradient);}.cls-7{mask:url(#mask-2);}.cls-8{opacity:0.33;mix-blend-mode:overlay;fill:url(#linear-gradient-2);}.cls-9{fill:#7b5c22;}.cls-10{filter:url(#luminosity-noclip);}</style><filter id="luminosity-noclip" x="4.38" y="-8212.03" width="24" height="32766" filterUnits="userSpaceOnUse" color-interpolation-filters="sRGB"><feFlood flood-color="#fff" result="bg"/><feBlend in="SourceGraphic" in2="bg"/></filter><mask id="mask" x="4.38" y="-8212.03" width="24" height="32766" maskUnits="userSpaceOnUse"><g class="cls-10"/></mask><linearGradient id="linear-gradient" x1="-1195.16" y1="-53.49" x2="-1195.16" y2="-46.02" gradientTransform="matrix(-1.5, 0, 0, 1.5, -1776.36, 81.15)" gradientUnits="userSpaceOnUse"><stop offset="0" stop-color="#fff"/><stop offset="0.32" stop-color="#e1e1e1"/><stop offset="1" stop-color="#999"/></linearGradient><radialGradient id="Безымянный_градиент_5" cx="16.38" cy="32.75" r="14.46" gradientTransform="translate(0 25.78) scale(1 0.21)" gradientUnits="userSpaceOnUse"><stop offset="0"/><stop offset="1" stop-color="#fff" stop-opacity="0"/></radialGradient><radialGradient id="radial-gradient" cx="-1194.9" cy="-48.34" r="15.88" gradientTransform="matrix(-1.48, -0.24, -0.24, 1.48, -1763.6, -206.85)" gradientUnits="userSpaceOnUse"><stop offset="0" stop-color="#fbec29"/><stop offset="0.14" stop-color="#fbe725"/><stop offset="0.31" stop-color="#fcd81b"/><stop offset="0.5" stop-color="#febe0a"/><stop offset="0.5" stop-color="#febe0a"/><stop offset="1" stop-color="#fd7f18"/></radialGradient><filter id="luminosity-noclip-2" x="4.38" y="0.89" width="24" height="11.53" filterUnits="userSpaceOnUse" color-interpolation-filters="sRGB"><feFlood flood-color="#fff" result="bg"/><feBlend in="SourceGraphic" in2="bg"/></filter><mask id="mask-2" x="4.38" y="0.89" width="24" height="11.53" maskUnits="userSpaceOnUse"><g class="cls-1"><path class="cls-2" d="M16.38,12.42c5.49,0,12-.36,12-4.09S21.87.89,16.38.89s-12,3.7-12,7.44S10.88,12.42,16.38,12.42Z"/></g></mask><linearGradient id="linear-gradient-2" x1="-1195.16" y1="-53.49" x2="-1195.16" y2="-46.02" gradientTransform="matrix(-1.5, 0, 0, 1.5, -1776.36, 81.15)" gradientUnits="userSpaceOnUse"><stop offset="0" stop-color="#fff"/><stop offset="1" stop-color="#fff"/></linearGradient></defs><g class="cls-3"><g id="Слой_2" data-name="Слой 2"><g id="Layer_1" data-name="Layer 1"><g class="cls-4"><ellipse class="cls-5" cx="16.38" cy="32.75" rx="14.69" ry="3.25"/></g><circle class="cls-6" cx="16.33" cy="16.33" r="16.33" transform="translate(-2.41 2.83) rotate(-9.22)"/><g class="cls-7"><path class="cls-8" d="M16.38,12.42c5.49,0,12-.36,12-4.09S21.87.89,16.38.89s-12,3.7-12,7.44S10.88,12.42,16.38,12.42Z"/></g><path class="cls-9" d="M16.37,24.78A7.83,7.83,0,0,1,8.55,17a.59.59,0,0,1,.58-.59.6.6,0,0,1,.59.59A6.66,6.66,0,1,0,23,17a.6.6,0,0,1,.59-.59.59.59,0,0,1,.58.59A7.84,7.84,0,0,1,16.37,24.78Z"/><path class="cls-9" d="M12.65,13.34a.55.55,0,0,1-.38-.15A3.08,3.08,0,0,0,10,12.13a3.4,3.4,0,0,0-2.18,1,.53.53,0,0,1-.79-.71A4.53,4.53,0,0,1,10,11.07a4.09,4.09,0,0,1,3,1.37.54.54,0,0,1,0,.75A.53.53,0,0,1,12.65,13.34Z"/><path class="cls-9" d="M12.65,13.26a.52.52,0,0,1-.38-.16,3.06,3.06,0,0,0-2.24-1,3.35,3.35,0,0,0-2.18,1,.53.53,0,0,1-.79-.71A4.49,4.49,0,0,1,10,11a4.09,4.09,0,0,1,3,1.37.53.53,0,0,1,0,.74A.5.5,0,0,1,12.65,13.26Z"/><path class="cls-9" d="M25.29,13.34a.53.53,0,0,1-.37-.15,3.08,3.08,0,0,0-2.24-1.06,3.47,3.47,0,0,0-2.19,1,.52.52,0,0,1-.74,0,.53.53,0,0,1,0-.74,4.53,4.53,0,0,1,2.93-1.39,4.09,4.09,0,0,1,3,1.37.54.54,0,0,1,0,.75A.55.55,0,0,1,25.29,13.34Z"/><path class="cls-9" d="M25.29,13.26a.5.5,0,0,1-.37-.16,3.06,3.06,0,0,0-2.24-1,3.42,3.42,0,0,0-2.19,1,.52.52,0,0,1-.74,0,.53.53,0,0,1,0-.74A4.49,4.49,0,0,1,22.64,11a4.09,4.09,0,0,1,3,1.37.53.53,0,0,1,0,.74A.52.52,0,0,1,25.29,13.26Z"/></g></g></g></svg>