<svg xmlns="http://www.w3.org/2000/svg" xmlns:xlink="http://www.w3.org/1999/xlink" viewBox="0 0 32.96 36.93"><defs><style>.cls-1{mask:url(#mask);filter:url(#luminosity-noclip-2);}.cls-2{mix-blend-mode:multiply;fill:url(#linear-gradient);}.cls-3{isolation:isolate;}.cls-4{opacity:0.66;}.cls-5{fill:url(#Безымянный_градиент_5);}.cls-6{fill:url(#radial-gradient);}.cls-7{mask:url(#mask-2);}.cls-8{opacity:0.33;mix-blend-mode:overlay;fill:url(#linear-gradient-2);}.cls-9{fill:#7b5c22;}.cls-10{fill:url(#linear-gradient-3);}.cls-11{fill:url(#linear-gradient-4);}.cls-12{filter:url(#luminosity-noclip);}</style><filter id="luminosity-noclip" x="4.42" y="-8212.3" width="24.21" height="32766" filterUnits="userSpaceOnUse" color-interpolation-filters="sRGB"><feFlood flood-color="#fff" result="bg"/><feBlend in="SourceGraphic" in2="bg"/></filter><mask id="mask" x="4.42" y="-8212.3" width="24.21" height="32766" maskUnits="userSpaceOnUse"><g class="cls-12"/></mask><linearGradient id="linear-gradient" x1="-1712.73" y1="-53.4" x2="-1712.73" y2="-45.86" gradientTransform="matrix(-1.5, 0, 0, 1.5, -2552.57, 81.01)" gradientUnits="userSpaceOnUse"><stop offset="0" stop-color="#fff"/><stop offset="0.32" stop-color="#e1e1e1"/><stop offset="1" stop-color="#999"/></linearGradient><radialGradient id="Безымянный_градиент_5" cx="17.46" cy="33.67" r="14.46" gradientTransform="translate(0 26.51) scale(1 0.21)" gradientUnits="userSpaceOnUse"><stop offset="0"/><stop offset="1" stop-color="#fff" stop-opacity="0"/></radialGradient><radialGradient id="radial-gradient" cx="-1712.46" cy="-48.2" r="16.02" gradientTransform="matrix(-1.06, -1.06, -1.06, 1.06, -1845.74, -1754.48)" gradientUnits="userSpaceOnUse"><stop offset="0" stop-color="#fbec29"/><stop offset="0.14" stop-color="#fbe725"/><stop offset="0.31" stop-color="#fcd81b"/><stop offset="0.5" stop-color="#febe0a"/><stop offset="0.5" stop-color="#febe0a"/><stop offset="1" stop-color="#fd7f18"/></radialGradient><filter id="luminosity-noclip-2" x="4.42" y="0.9" width="24.21" height="11.63" filterUnits="userSpaceOnUse" color-interpolation-filters="sRGB"><feFlood flood-color="#fff" result="bg"/><feBlend in="SourceGraphic" in2="bg"/></filter><mask id="mask-2" x="4.42" y="0.9" width="24.21" height="11.63" maskUnits="userSpaceOnUse"><g class="cls-1"><path class="cls-2" d="M16.52,12.53c5.54,0,12.11-.36,12.11-4.13S22.07.9,16.52.9,4.42,4.63,4.42,8.4,11,12.53,16.52,12.53Z"/></g></mask><linearGradient id="linear-gradient-2" x1="-1712.73" y1="-53.4" x2="-1712.73" y2="-45.86" gradientTransform="matrix(-1.5, 0, 0, 1.5, -2552.57, 81.01)" gradientUnits="userSpaceOnUse"><stop offset="0" stop-color="#fff"/><stop offset="1" stop-color="#fff"/></linearGradient><linearGradient id="linear-gradient-3" x1="24.44" y1="10.96" x2="24.44" y2="15.5" gradientUnits="userSpaceOnUse"><stop offset="0" stop-color="#4f4f4f"/><stop offset="0.06" stop-color="#3b3b3b"/><stop offset="0.14" stop-color="#252525"/><stop offset="0.24" stop-color="#141414"/><stop offset="0.36" stop-color="#090909"/><stop offset="0.53" stop-color="#020202"/><stop offset="1"/></linearGradient><linearGradient id="linear-gradient-4" x1="8.88" y1="10.87" x2="8.88" y2="15.47" xlink:href="#linear-gradient-3"/></defs><g class="cls-3"><g id="Слой_2" data-name="Слой 2"><g id="Layer_1" data-name="Layer 1"><g class="cls-4"><ellipse class="cls-5" cx="17.46" cy="33.67" rx="14.69" ry="3.25"/></g><circle class="cls-6" cx="16.48" cy="16.48" r="16.48" transform="translate(-6.83 16.48) rotate(-45)"/><g class="cls-7"><path class="cls-8" d="M16.52,12.53c5.54,0,12.11-.36,12.11-4.13S22.07.9,16.52.9,4.42,4.63,4.42,8.4,11,12.53,16.52,12.53Z"/></g><path class="cls-9" d="M12.6,25.73a.64.64,0,1,1,0-1.28h6.72a5.74,5.74,0,0,0,3.95-2.34.63.63,0,1,1,1.07.68,6.9,6.9,0,0,1-5,2.93Z"/><path class="cls-9" d="M12.6,25.54A.64.64,0,0,1,12,24.9a.64.64,0,0,1,.64-.63h6.72a5.79,5.79,0,0,0,3.95-2.34.63.63,0,1,1,1.07.67,6.93,6.93,0,0,1-5,2.94Z"/><path class="cls-10" d="M19.13,14.92c.06.19,1.54,4.74,7.52,2.81h0c.14,0,3.39-.76,3.21-5.95v-.18l.06-1.2-9.4.42A3.33,3.33,0,0,0,19.13,14.92Z"/><path class="cls-11" d="M12.75,10.81,3.4,10.3v1.47C3.22,17,6.57,17.72,6.61,17.72h0a6.59,6.59,0,0,0,5.22-.11,5.12,5.12,0,0,0,2.3-2.7A3.31,3.31,0,0,0,12.75,10.81Z"/><path d="M32.15,11.13l-.21-1.7-1.24.15L20.37,10l-.07,0a3.92,3.92,0,0,0-1.42,1.27H14.42A3.92,3.92,0,0,0,13,10.07l-.07,0L2.42,9.6,1,9.43l-.21,1.7,1.77.21.06.59c-.11,5.45,3.44,6.47,3.79,6.55a9.69,9.69,0,0,0,3,.51,6,6,0,0,0,2.85-.68,5.87,5.87,0,0,0,2.67-3.16,5.13,5.13,0,0,0,.2-2.06h3.1a5.13,5.13,0,0,0,.2,2.06,5.87,5.87,0,0,0,2.67,3.16,6,6,0,0,0,2.85.68,9.69,9.69,0,0,0,2.95-.51c.35-.08,3.9-1.1,3.79-6.55l.05-.63Zm-18,3.79a5.12,5.12,0,0,1-2.3,2.7,6.59,6.59,0,0,1-5.22.11h0S3.22,17,3.4,11.77V10.3l9.35.51A3.31,3.31,0,0,1,14.17,14.92ZM29.9,11.77c.18,5.19-3.07,5.92-3.21,5.95h0c-6,1.93-7.46-2.62-7.52-2.81a3.33,3.33,0,0,1,1.42-4.11l9.4-.42-.06,1.2Z"/></g></g></g></svg>