<svg xmlns="http://www.w3.org/2000/svg" xmlns:xlink="http://www.w3.org/1999/xlink" viewBox="0 0 32.67 36.01"><defs><style>.cls-1{mask:url(#mask);filter:url(#luminosity-noclip-2);}.cls-2{mix-blend-mode:multiply;fill:url(#linear-gradient);}.cls-3{isolation:isolate;}.cls-4{opacity:0.66;}.cls-5{fill:url(#Безымянный_градиент_5);}.cls-6{fill:url(#radial-gradient);}.cls-7{mask:url(#mask-2);}.cls-8{opacity:0.33;mix-blend-mode:overlay;fill:url(#linear-gradient-2);}.cls-9{fill:#7b5c22;}.cls-10{fill:#ff4b3f;}.cls-11{filter:url(#luminosity-noclip);}</style><filter id="luminosity-noclip" x="4.38" y="-8212.03" width="24" height="32766" filterUnits="userSpaceOnUse" color-interpolation-filters="sRGB"><feFlood flood-color="#fff" result="bg"/><feBlend in="SourceGraphic" in2="bg"/></filter><mask id="mask" x="4.38" y="-8212.03" width="24" height="32766" maskUnits="userSpaceOnUse"><g class="cls-11"/></mask><linearGradient id="linear-gradient" x1="-1479.61" y1="-53.49" x2="-1479.61" y2="-46.02" gradientTransform="matrix(-1.5, 0, 0, 1.5, -2203.04, 81.15)" gradientUnits="userSpaceOnUse"><stop offset="0" stop-color="#fff"/><stop offset="0.32" stop-color="#e1e1e1"/><stop offset="1" stop-color="#999"/></linearGradient><radialGradient id="Безымянный_градиент_5" cx="16.88" cy="32.75" r="14.46" gradientTransform="translate(0 25.78) scale(1 0.21)" gradientUnits="userSpaceOnUse"><stop offset="0"/><stop offset="1" stop-color="#fff" stop-opacity="0"/></radialGradient><radialGradient id="radial-gradient" cx="-1479.35" cy="-48.34" r="15.88" gradientTransform="matrix(-1.5, 0, 0, 1.5, -2203.04, 81.15)" gradientUnits="userSpaceOnUse"><stop offset="0" stop-color="#fbec29"/><stop offset="0.14" stop-color="#fbe725"/><stop offset="0.31" stop-color="#fcd81b"/><stop offset="0.5" stop-color="#febe0a"/><stop offset="0.5" stop-color="#febe0a"/><stop offset="1" stop-color="#fd7f18"/></radialGradient><filter id="luminosity-noclip-2" x="4.38" y="0.89" width="24" height="11.53" filterUnits="userSpaceOnUse" color-interpolation-filters="sRGB"><feFlood flood-color="#fff" result="bg"/><feBlend in="SourceGraphic" in2="bg"/></filter><mask id="mask-2" x="4.38" y="0.89" width="24" height="11.53" maskUnits="userSpaceOnUse"><g class="cls-1"><path class="cls-2" d="M16.38,12.42c5.49,0,12-.36,12-4.09S21.87.89,16.38.89s-12,3.7-12,7.44S10.88,12.42,16.38,12.42Z"/></g></mask><linearGradient id="linear-gradient-2" x1="-1479.61" y1="-53.49" x2="-1479.61" y2="-46.02" gradientTransform="matrix(-1.5, 0, 0, 1.5, -2203.04, 81.15)" gradientUnits="userSpaceOnUse"><stop offset="0" stop-color="#fff"/><stop offset="1" stop-color="#fff"/></linearGradient></defs><g class="cls-3"><g id="Слой_2" data-name="Слой 2"><g id="Layer_1" data-name="Layer 1"><g class="cls-4"><ellipse class="cls-5" cx="16.88" cy="32.75" rx="14.69" ry="3.25"/></g><circle class="cls-6" cx="16.33" cy="16.33" r="16.33"/><g class="cls-7"><path class="cls-8" d="M16.38,12.42c5.49,0,12-.36,12-4.09S21.87.89,16.38.89s-12,3.7-12,7.44S10.88,12.42,16.38,12.42Z"/></g><path class="cls-9" d="M18.38,24.65A.47.47,0,0,1,18,24.4a.46.46,0,0,1,.21-.6L19.93,23a.5.5,0,0,0,.3-.47.51.51,0,0,0-.3-.47l-1.75-.84a.46.46,0,0,1-.21-.6.45.45,0,0,1,.6-.2l1.75.84a1.41,1.41,0,0,1,0,2.54l-1.75.84A.45.45,0,0,1,18.38,24.65Z"/><path class="cls-9" d="M18.38,28.07a.45.45,0,0,1-.41-.25.45.45,0,0,1,.21-.59l1.75-.85a.51.51,0,0,0,0-.93l-1.75-.85A.45.45,0,0,1,18,24a.46.46,0,0,1,.6-.21l1.75.84a1.42,1.42,0,0,1,0,2.55L18.57,28A.43.43,0,0,1,18.38,28.07Z"/><path class="cls-10" d="M12.61,11.06c-1.21-.21-2.2,1.41-2.2,1.41s-1-1.81-2.2-1.41A2.29,2.29,0,0,0,7,14.26C7.72,16,10.41,18,10.41,18a23.72,23.72,0,0,0,3.34-3.56C14.49,13.33,14.27,11.35,12.61,11.06Z"/><path class="cls-10" d="M24.35,11.06c-1.21-.21-2.2,1.41-2.2,1.41s-1-1.81-2.2-1.41a2.29,2.29,0,0,0-1.21,3.2C19.46,16,22.15,18,22.15,18a23.57,23.57,0,0,0,3.35-3.56C26.24,13.33,26,11.35,24.35,11.06Z"/></g></g></g></svg>