<svg xmlns="http://www.w3.org/2000/svg" xmlns:xlink="http://www.w3.org/1999/xlink" viewBox="0 0 32.67 36.01"><defs><style>.cls-1{mask:url(#mask);filter:url(#luminosity-noclip-2);}.cls-2{mix-blend-mode:multiply;fill:url(#linear-gradient);}.cls-3{isolation:isolate;}.cls-4{opacity:0.66;}.cls-5{fill:url(#Безымянный_градиент_5);}.cls-6{fill:url(#radial-gradient);}.cls-7{mask:url(#mask-2);}.cls-8{opacity:0.33;mix-blend-mode:overlay;fill:url(#linear-gradient-2);}.cls-9{fill:url(#radial-gradient-2);}.cls-10{fill:#7b5c22;}.cls-11{fill:url(#radial-gradient-3);}.cls-12{fill:#fb6775;}.cls-13{fill:#cb535f;}.cls-14{filter:url(#luminosity-noclip);}</style><filter id="luminosity-noclip" x="4.38" y="-8212.03" width="24" height="32766" filterUnits="userSpaceOnUse" color-interpolation-filters="sRGB"><feFlood flood-color="#fff" result="bg"/><feBlend in="SourceGraphic" in2="bg"/></filter><mask id="mask" x="4.38" y="-8212.03" width="24" height="32766" maskUnits="userSpaceOnUse"><g class="cls-14"/></mask><linearGradient id="linear-gradient" x1="-1405.57" y1="-53.49" x2="-1405.57" y2="-46.02" gradientTransform="matrix(-1.5, 0, 0, 1.5, -2091.99, 81.15)" gradientUnits="userSpaceOnUse"><stop offset="0" stop-color="#fff"/><stop offset="0.32" stop-color="#e1e1e1"/><stop offset="1" stop-color="#999"/></linearGradient><radialGradient id="Безымянный_градиент_5" cx="16.17" cy="32.75" r="14.46" gradientTransform="translate(0 25.78) scale(1 0.21)" gradientUnits="userSpaceOnUse"><stop offset="0"/><stop offset="1" stop-color="#fff" stop-opacity="0"/></radialGradient><radialGradient id="radial-gradient" cx="-1405.31" cy="-48.34" r="15.88" gradientTransform="matrix(-1.48, -0.24, -0.24, 1.48, -2075.14, -257.4)" gradientUnits="userSpaceOnUse"><stop offset="0" stop-color="#fbec29"/><stop offset="0.14" stop-color="#fbe725"/><stop offset="0.31" stop-color="#fcd81b"/><stop offset="0.5" stop-color="#febe0a"/><stop offset="0.5" stop-color="#febe0a"/><stop offset="1" stop-color="#fd7f18"/></radialGradient><filter id="luminosity-noclip-2" x="4.38" y="0.89" width="24" height="11.53" filterUnits="userSpaceOnUse" color-interpolation-filters="sRGB"><feFlood flood-color="#fff" result="bg"/><feBlend in="SourceGraphic" in2="bg"/></filter><mask id="mask-2" x="4.38" y="0.89" width="24" height="11.53" maskUnits="userSpaceOnUse"><g class="cls-1"><path class="cls-2" d="M16.38,12.42c5.49,0,12-.36,12-4.09S21.87.89,16.38.89s-12,3.7-12,7.44S10.88,12.42,16.38,12.42Z"/></g></mask><linearGradient id="linear-gradient-2" x1="-1405.57" y1="-53.49" x2="-1405.57" y2="-46.02" gradientTransform="matrix(-1.5, 0, 0, 1.5, -2091.99, 81.15)" gradientUnits="userSpaceOnUse"><stop offset="0" stop-color="#fff"/><stop offset="1" stop-color="#fff"/></linearGradient><radialGradient id="radial-gradient-2" cx="9.37" cy="14.57" r="5.07" gradientUnits="userSpaceOnUse"><stop offset="0" stop-color="#fff"/><stop offset="0.55" stop-color="#fdfdfd"/><stop offset="0.75" stop-color="#f6f6f6"/><stop offset="0.89" stop-color="#ebebeb"/><stop offset="0.99" stop-color="#dbdbdb"/></radialGradient><radialGradient id="radial-gradient-3" cx="-1314.83" cy="14.57" r="5.07" gradientTransform="matrix(-1, 0, 0, 1, -1291.19, 0)" xlink:href="#radial-gradient-2"/></defs><g class="cls-3"><g id="Слой_2" data-name="Слой 2"><g id="Layer_1" data-name="Layer 1"><g class="cls-4"><ellipse class="cls-5" cx="16.17" cy="32.75" rx="14.69" ry="3.25"/></g><circle class="cls-6" cx="16.33" cy="16.33" r="16.33" transform="translate(-2.41 2.83) rotate(-9.22)"/><g class="cls-7"><path class="cls-8" d="M16.38,12.42c5.49,0,12-.36,12-4.09S21.87.89,16.38.89s-12,3.7-12,7.44S10.88,12.42,16.38,12.42Z"/></g><circle class="cls-9" cx="9.37" cy="14.57" r="5.07"/><path class="cls-10" d="M12,15.6a1.5,1.5,0,1,1-1.5-1.5A1.5,1.5,0,0,1,12,15.6Z"/><circle class="cls-11" cx="23.64" cy="14.57" r="5.07"/><path class="cls-10" d="M21,15.6a1.5,1.5,0,1,0,1.5-1.5A1.5,1.5,0,0,0,21,15.6Z"/><path class="cls-10" d="M16.33,22.94a23.69,23.69,0,0,1-6.7-1s-.23,5,6.7,5S23,22,23,22A23.74,23.74,0,0,1,16.33,22.94Z"/><path class="cls-10" d="M23,22.3a23.84,23.84,0,0,1-6.7,1,23.83,23.83,0,0,1-6.69-1c0-.21,0-.34,0-.34a23.92,23.92,0,0,0,6.7,1A23.84,23.84,0,0,0,23,22,3,3,0,0,1,23,22.3Z"/><path class="cls-12" d="M19.33,24.77v4.49a3.09,3.09,0,0,1-3.08,3.08h0a3.09,3.09,0,0,1-3.07-3.08V24.77Z"/><rect class="cls-13" x="13.18" y="24.77" width="6.15" height="0.78"/><rect class="cls-13" x="16" y="24.77" width="0.5" height="3.12"/></g></g></g></svg>