<?xml version="1.0" encoding="utf-8"?>
<!-- Generator: Adobe Illustrator 25.0.1, SVG Export Plug-In . SVG Version: 6.00 Build 0)  -->
<svg version="1.1" id="Layer_1" xmlns="http://www.w3.org/2000/svg" xmlns:xlink="http://www.w3.org/1999/xlink" x="0px" y="0px"
	 viewBox="0 0 32.7 36" style="enable-background:new 0 0 32.7 36;" xml:space="preserve">
<style type="text/css">
	.st0{fill:url(#SVGID_1_);}
	.st1{opacity:0.66;}
	.st2{fill:url(#SVGID_2_);}
	.st3{fill:url(#SVGID_3_);}
	.st4{opacity:0.33;fill:url(#SVGID_4_);enable-background:new    ;}
	.st5{fill:#7B5C22;}
	.st6{fill:#FF5C5C;}
	.st7{fill:#F74B4B;}
	.st8{fill:#FFFFFF;}
	.st9{fill:#AFD3DD;}
</style>
<linearGradient id="SVGID_1_" gradientUnits="userSpaceOnUse" x1="49.4074" y1="-14.6363" x2="59.776" y2="-14.6363">
	<stop  offset="1.374357e-02" style="stop-color:#920101"/>
	<stop  offset="0.2213" style="stop-color:#9C0109"/>
	<stop  offset="0.5379" style="stop-color:#A70112"/>
	<stop  offset="0.7111" style="stop-color:#B3010D"/>
	<stop  offset="1" style="stop-color:#CF0000"/>
</linearGradient>
<rect x="49.4" y="-18.3" class="st0" width="10.4" height="7.4"/>
<g>
	<g>
		<g>
			<g id="Слой_2">
				<g id="Layer_1_1_">
					<g class="st1">
						
							<radialGradient id="SVGID_2_" cx="15.2115" cy="1865.0619" r="11.0618" gradientTransform="matrix(1 0 0 0.21 0 -358.22)" gradientUnits="userSpaceOnUse">
							<stop  offset="0" style="stop-color:#000000"/>
							<stop  offset="1" style="stop-color:#FFFFFF;stop-opacity:0"/>
						</radialGradient>
						<ellipse class="st2" cx="15.2" cy="33.5" rx="11.3" ry="2.5"/>
					</g>
					
						<radialGradient id="SVGID_3_" cx="-2058.3706" cy="211.9464" r="12.1482" gradientTransform="matrix(-1.5 0 0 1.5 -3072.5698 -302.85)" gradientUnits="userSpaceOnUse">
						<stop  offset="0" style="stop-color:#FBEC29"/>
						<stop  offset="0.14" style="stop-color:#FBE725"/>
						<stop  offset="0.31" style="stop-color:#FCD81B"/>
						<stop  offset="0.5" style="stop-color:#FEBE0A"/>
						<stop  offset="0.5" style="stop-color:#FEBE0A"/>
						<stop  offset="1" style="stop-color:#FD7F18"/>
					</radialGradient>
					<circle class="st3" cx="15.3" cy="21" r="12.5"/>
					<g>
						
							<linearGradient id="SVGID_4_" gradientUnits="userSpaceOnUse" x1="-2058.5593" y1="208.0067" x2="-2058.5593" y2="213.7213" gradientTransform="matrix(-1.5 0 0 1.5 -3072.5698 -302.85)">
							<stop  offset="0" style="stop-color:#FFFFFF"/>
							<stop  offset="1" style="stop-color:#FFFFFF"/>
						</linearGradient>
						<path class="st4" d="M15.3,18c4.2,0,9.2-0.3,9.2-3.1s-5-5.8-9.2-5.8s-9.2,2.8-9.2,5.7S11.1,18,15.3,18z"/>
					</g>
					<path class="st5" d="M12.5,20c0,0.9-0.7,1.8-1.8,1.8C9.8,21.7,9,21,9,20c0-0.9,0.7-1.8,1.8-1.8l0,0C11.7,18.3,12.5,19,12.5,20z
						"/>
					<path class="st5" d="M21.5,20.3c-0.6-0.2-1.3-0.3-2.1-0.3s-1.3,0.1-2.1,0.3c0.6-1.1,2-1.6,3.1-1C21,19.4,21.3,19.9,21.5,20.3
						L21.5,20.3z"/>
					<path class="st5" d="M15.3,25.3c0,0-3.6-0.1-5-0.7c0,0,0.5,3.3,5,3.3s5-3.3,5-3.3C18.9,25.1,15.3,25.3,15.3,25.3z"/>
				</g>
			</g>
		</g>
	</g>
	<g>
		<g>
			<g>
				<path class="st6" d="M10,6.9c2.1-1.4,2.9-3.8,5.2-5c1.3-0.6,2.4-0.1,3.7-0.5c1.4-0.5,1.2-1.6,3.1-1.3c3.4,0.4,2.7,2.7,3.4,4.5
					c1.2,1.2,0.6,1.4,0.5,2.6c-0.3,1.6,0.9,2.5,0.6,4.4c0,0.2-8.3,0.2-8.1,0.3L6,11.2C6,8.9,7.9,8.3,10,6.9z"/>
			</g>
			<g>
				<path class="st7" d="M19.6,9c0.6-0.4,3.8-0.6,2.6-1.5c-0.4-0.2-1.3-0.1-1.8-0.2c-0.6,0-1.2-0.2-1.7-0.4c-0.8-0.2-3.9-0.8-3-1.6
					c0.9-0.8,3.5,0.6,4.7,0.4c0-0.4-0.3-0.5-0.7-0.6c-0.8-0.4-4.3-1.1-3.3-2.3c0.5-0.6,2.5,1,3.5,1.1c0.7,0.1,3.9,0.2,5.7,0.8
					c0,0,0,0,0,0c0.3,1,0.7,1.5,0.5,2.6c-0.2,1.2,0.1,1.4,0.5,2.7c0.2,0.7,0.2,1.9,0,2.5l-8-0.4c-0.1-0.1-0.2-0.2-0.3-0.3
					C17.5,10.6,18.6,9.5,19.6,9z"/>
			</g>
		</g>
		<g>
			<g>
				<path class="st8" d="M23.8,5c-0.3-0.5-0.5-1.1-0.5-1.7c0-1.7,1.4-3.2,3.2-3.2c0.4,0,0.8,0.1,1.2,0.2c0.2,0.4,0.3,0.8,0.2,1.2
					C27.7,3.8,25.7,4.7,23.8,5z"/>
			</g>
			<path class="st9" d="M27.9,1.6c0-0.4-0.1-0.8-0.2-1.2c1.2,0.5,2,1.6,2,2.9c0,1.7-1.4,3.2-3.2,3.2c-1.1,0-2.1-0.6-2.7-1.4
				C25.7,4.7,27.7,3.8,27.9,1.6z"/>
		</g>
		<g>
			<g>
				<path class="st9" d="M2.9,14.3c-0.3-1.3-0.3-2.8,3.3-3.2c2.7-0.3,7.1,0,9.8,0.1c3.6,0.1,7.2,0.2,10.7,0.5c1.4,1,1.4,2.5,0.2,3.4
					c-1.4,1.1-5,0-8-0.1c-3.1-0.1-6.1-0.1-9.3,0.1c-1.5,0.1-3.7,0.1-4.9,0.6C3.7,15.4,3,14.9,2.9,14.3z"/>
			</g>
		</g>
		<g>
			<g>
				<path class="st8" d="M3.4,14.1C3.4,14,3.4,14,3.4,14.1c-0.2-0.6-0.1-1.2,0.3-1.7c0.4-0.4,0.9-0.7,1.5-0.8
					c0.6-0.1,1.1-0.1,1.7-0.1c2.3,0,4.6-0.1,6.9,0c2.4,0,4.7,0.1,7.1,0.2c0.1,0,0.2,0,0.3,0c0.9,0,1.8,0.1,2.7,0.1
					c0.8,0.1,1.9,0,2.5,0.7c0.2,0.2,0.4,0.6,0.1,0.8c-0.1,0.1-0.3,0.1-0.5,0.1c-3.3,0-6.5,0-9.8,0c-1.8,0-3.6-0.1-5.4,0
					c-1.1,0.1-2.3,0.3-3.4,0.6c-0.6,0.2-1.1,0.4-1.6,0.6c-0.5,0.2-1,0.5-1.5,0.3C3.9,14.7,3.6,14.4,3.4,14.1z"/>
			</g>
		</g>
	</g>
</g>
</svg>
