<?xml version="1.0" encoding="utf-8"?>
<!-- Generator: Adobe Illustrator 25.0.1, SVG Export Plug-In . SVG Version: 6.00 Build 0)  -->
<svg version="1.1" id="Layer_1" xmlns="http://www.w3.org/2000/svg" xmlns:xlink="http://www.w3.org/1999/xlink" x="0px" y="0px"
	 viewBox="0 0 32.7 36" style="enable-background:new 0 0 32.7 36;" xml:space="preserve">
<style type="text/css">
	.st0{opacity:0.66;}
	.st1{fill:url(#SVGID_1_);}
	.st2{fill:url(#SVGID_2_);}
	.st3{opacity:0.33;fill:url(#SVGID_3_);enable-background:new    ;}
	.st4{fill:#7B5C22;}
	.st5{fill:#FFFFFF;}
	.st6{fill:#FF5C5C;}
	.st7{fill:#F74B4B;}
	.st8{fill:#AFD3DD;}
</style>
<g>
	<g>
		<g>
			<g id="Слой_2">
				<g id="Layer_1_1_">
					<g class="st0">
						
							<radialGradient id="SVGID_1_" cx="15.8905" cy="1864.9575" r="11.1567" gradientTransform="matrix(1 0 0 0.21 0 -358.22)" gradientUnits="userSpaceOnUse">
							<stop  offset="0" style="stop-color:#000000"/>
							<stop  offset="1" style="stop-color:#FFFFFF;stop-opacity:0"/>
						</radialGradient>
						<ellipse class="st1" cx="15.9" cy="33.5" rx="11.4" ry="2.5"/>
					</g>
					
						<radialGradient id="SVGID_2_" cx="-2201.3213" cy="211.8268" r="12.2523" gradientTransform="matrix(-1.5 0 0 1.5 -3286.3999 -302.85)" gradientUnits="userSpaceOnUse">
						<stop  offset="0" style="stop-color:#FBEC29"/>
						<stop  offset="0.14" style="stop-color:#FBE725"/>
						<stop  offset="0.31" style="stop-color:#FCD81B"/>
						<stop  offset="0.5" style="stop-color:#FEBE0A"/>
						<stop  offset="0.5" style="stop-color:#FEBE0A"/>
						<stop  offset="1" style="stop-color:#FD7F18"/>
					</radialGradient>
					<circle class="st2" cx="15.8" cy="20.8" r="12.6"/>
					<g>
						
							<linearGradient id="SVGID_3_" gradientUnits="userSpaceOnUse" x1="-2201.5588" y1="207.8533" x2="-2201.5588" y2="213.6168" gradientTransform="matrix(-1.5 0 0 1.5 -3286.3999 -302.85)">
							<stop  offset="0" style="stop-color:#FFFFFF"/>
							<stop  offset="1" style="stop-color:#FFFFFF"/>
						</linearGradient>
						<path class="st3" d="M15.9,17.8c4.2,0,9.3-0.3,9.3-3.2s-5.1-5.7-9.3-5.7s-9.3,2.8-9.3,5.7S11.6,17.8,15.9,17.8z"/>
					</g>
					<path class="st4" d="M13.6,18.2c0,0.3,0,0.5-0.1,0.7c-0.4-1.1-1.6-1.7-2.7-1.3c-0.5,0.2-1.1,0.6-1.3,1.3
						c-0.1-0.2-0.1-0.5-0.1-0.7c0-1.2,0.9-2.1,2.1-2.1S13.6,17.1,13.6,18.2z"/>
					<path class="st4" d="M22.4,18.2c0,0.3,0,0.5-0.1,0.7c-0.4-1.1-1.6-1.7-2.7-1.3c-0.5,0.2-1.1,0.6-1.3,1.3
						c-0.1-0.2-0.1-0.5-0.1-0.7c0-1.2,0.9-2.1,2.1-2.1S22.4,17.1,22.4,18.2z"/>
					<path class="st4" d="M22.4,22.2c0,0.5,0,1.2-0.1,1.7c-0.9,4.8-5.7,4.9-5.9,4.9s-5.7-0.1-6.7-4.9c-0.1-0.5-0.2-1.2-0.2-1.7
						c2.1,0.5,4.3,0.8,6.5,0.9C18,22.9,20.3,22.7,22.4,22.2z"/>
					<path class="st5" d="M22.4,22.2c0,0.5,0,1.2-0.1,1.7c-2.1,0.5-4.2,0.8-6.3,0.8c-2.1-0.1-4.2-0.3-6.3-0.8
						c-0.1-0.5-0.2-1.2-0.2-1.7c2.1,0.5,4.3,0.8,6.5,0.9C18,22.9,20.3,22.7,22.4,22.2z"/>
				</g>
			</g>
		</g>
	</g>
	<g>
		<g>
			<g>
				<path class="st6" d="M10.7,6.8c2.1-1.4,2.9-3.8,5.2-4.9c1.3-0.6,2.4-0.1,3.7-0.5C21,0.8,20.8-0.2,22.7,0
					c3.3,0.4,2.7,2.6,3.3,4.5c1.2,1.2,0.6,1.4,0.5,2.6c-0.3,1.5,0.9,2.5,0.6,4.4c0,0.2-8.2,0.2-8.1,0.3L6.8,11.1
					C6.8,8.8,8.7,8.2,10.7,6.8z"/>
			</g>
			<g>
				<path class="st7" d="M20.3,8.9c0.6-0.4,3.7-0.6,2.5-1.5c-0.4-0.2-1.3-0.1-1.8-0.2c-0.6,0-1.1-0.2-1.7-0.4
					c-0.8-0.2-3.9-0.8-3-1.6c0.9-0.8,3.5,0.6,4.6,0.4c0-0.4-0.3-0.5-0.7-0.6c-0.8-0.4-4.2-1.1-3.3-2.3c0.5-0.6,2.5,1,3.4,1.1
					c0.6,0.1,3.9,0.2,5.6,0.8c0,0,0,0,0,0c0.3,1,0.7,1.5,0.5,2.5c-0.2,1.2,0.1,1.4,0.5,2.6c0.2,0.7,0.2,1.8,0,2.5l-7.9-0.4
					c-0.1-0.1-0.2-0.2-0.3-0.3C18.2,10.5,19.3,9.4,20.3,8.9z"/>
			</g>
		</g>
		<g>
			<g>
				<path class="st5" d="M24.4,5c-0.3-0.5-0.5-1.1-0.5-1.7c0-1.7,1.4-3.1,3.2-3.1c0.4,0,0.8,0.1,1.2,0.2c0.2,0.4,0.3,0.8,0.2,1.2
					C28.4,3.8,26.4,4.7,24.4,5z"/>
			</g>
			<path class="st8" d="M28.5,1.6c0-0.4-0.1-0.8-0.2-1.2c1.2,0.5,2,1.6,2,2.9c0,1.7-1.4,3.1-3.2,3.1C26,6.4,25,5.8,24.4,5
				C26.4,4.7,28.4,3.8,28.5,1.6z"/>
		</g>
		<g>
			<g>
				<path class="st8" d="M3.7,14.2c-0.3-1.3-0.3-2.7,3.3-3.1c2.7-0.3,7,0,9.7,0.1c3.5,0.1,7.2,0.2,10.6,0.5c1.3,1,1.3,2.5,0.2,3.4
					c-1.4,1.1-5,0-8-0.1c-3.1-0.1-6.1-0.1-9.2,0.1c-1.5,0.1-3.7,0.1-4.9,0.6C4.5,15.3,3.8,14.8,3.7,14.2z"/>
			</g>
		</g>
		<g>
			<g>
				<path class="st5" d="M4.2,14C4.2,13.9,4.2,13.9,4.2,14c-0.2-0.6-0.1-1.2,0.3-1.7c0.4-0.4,0.9-0.7,1.5-0.8
					c0.6-0.1,1.1-0.1,1.7-0.1c2.3,0,4.6-0.1,6.9,0c2.4,0,4.7,0.1,7.1,0.2c0.1,0,0.2,0,0.3,0c0.9,0,1.8,0.1,2.7,0.1
					c0.8,0.1,1.9,0,2.4,0.7c0.2,0.2,0.4,0.6,0.1,0.8c-0.1,0.1-0.3,0.1-0.5,0.1c-3.2,0-6.5,0-9.7,0c-1.8,0-3.6-0.1-5.3,0
					c-1.1,0.1-2.2,0.3-3.3,0.6c-0.6,0.2-1.1,0.4-1.6,0.6c-0.5,0.2-1,0.5-1.5,0.3C4.7,14.6,4.4,14.3,4.2,14z"/>
			</g>
		</g>
	</g>
</g>
</svg>
