<?xml version="1.0" encoding="utf-8"?>
<!-- Generator: Adobe Illustrator 25.0.1, SVG Export Plug-In . SVG Version: 6.00 Build 0)  -->
<svg version="1.1" id="Layer_1" xmlns="http://www.w3.org/2000/svg" xmlns:xlink="http://www.w3.org/1999/xlink" x="0px" y="0px"
	 viewBox="0 0 33 36.9" style="enable-background:new 0 0 33 36.9;" xml:space="preserve">
<style type="text/css">
	.st0{opacity:0.66;}
	.st1{fill:url(#SVGID_1_);}
	.st2{fill:url(#SVGID_2_);}
	.st3{opacity:0.33;fill:url(#SVGID_3_);enable-background:new    ;}
	.st4{fill:#7B5C22;}
	.st5{fill:url(#SVGID_4_);}
	.st6{fill:url(#SVGID_5_);}
	.st7{fill:#E2B8E6;}
	.st8{fill:url(#SVGID_6_);}
	.st9{fill:url(#SVGID_7_);}
	.st10{fill:#ED8E1C;}
	.st11{fill:#F5C00D;}
	.st12{fill:url(#SVGID_8_);}
	.st13{fill:url(#SVGID_9_);}
	.st14{fill:url(#SVGID_10_);}
	.st15{fill:url(#SVGID_11_);}
</style>
<g>
	<g>
		<g id="Слой_2">
			<g id="Layer_1_1_">
				<g class="st0">
					
						<radialGradient id="SVGID_1_" cx="16.9682" cy="1840.9025" r="12.1085" gradientTransform="matrix(1 0 0 0.21 0 -355.49)" gradientUnits="userSpaceOnUse">
						<stop  offset="0" style="stop-color:#000000"/>
						<stop  offset="1" style="stop-color:#FFFFFF;stop-opacity:0"/>
					</radialGradient>
					<ellipse class="st1" cx="17" cy="31.2" rx="12.3" ry="2.7"/>
				</g>
				
					<radialGradient id="SVGID_2_" cx="-2713.4417" cy="208.3345" r="13.4148" gradientTransform="matrix(-1.4991 0 0 1.4991 -4052.6868 -300.9972)" gradientUnits="userSpaceOnUse">
					<stop  offset="0" style="stop-color:#FBEC29"/>
					<stop  offset="0.14" style="stop-color:#FBE725"/>
					<stop  offset="0.31" style="stop-color:#FCD81B"/>
					<stop  offset="0.5" style="stop-color:#FEBE0A"/>
					<stop  offset="0.5" style="stop-color:#FEBE0A"/>
					<stop  offset="1" style="stop-color:#FD7F18"/>
				</radialGradient>
				<circle class="st2" cx="16.6" cy="17.8" r="13.8"/>
				<g>
					
						<linearGradient id="SVGID_3_" gradientUnits="userSpaceOnUse" x1="-2713.2253" y1="203.8227" x2="-2713.2253" y2="210.1365" gradientTransform="matrix(-1.5 0 0 1.5 -4053.238 -300.9901)">
						<stop  offset="0" style="stop-color:#FFFFFF"/>
						<stop  offset="1" style="stop-color:#FFFFFF"/>
					</linearGradient>
					<path class="st3" d="M16.6,14.5c4.6,0,10.1-0.3,10.1-3.5s-5.5-6.3-10.1-6.3S6.5,7.9,6.5,11S12,14.5,16.6,14.5z"/>
				</g>
				<path class="st4" d="M13.3,25.5c-0.3,0-0.5-0.2-0.5-0.5s0.2-0.5,0.5-0.5l0,0H19c1.3-0.2,2.5-0.9,3.3-2c0.2-0.2,0.5-0.3,0.7-0.2
					c0.2,0.2,0.3,0.5,0.2,0.7l0,0c-1,1.4-2.5,2.3-4.2,2.5H13.3z"/>
			</g>
		</g>
	</g>
</g>
<g>
	
		<radialGradient id="SVGID_4_" cx="23.979" cy="406.2802" r="4.3212" gradientTransform="matrix(1 0 0 0.9413 0 -369.6455)" gradientUnits="userSpaceOnUse">
		<stop  offset="0" style="stop-color:#FFFFFF"/>
		<stop  offset="0.55" style="stop-color:#FDFDFD"/>
		<stop  offset="0.75" style="stop-color:#F6F6F6"/>
		<stop  offset="0.89" style="stop-color:#EBEBEB"/>
		<stop  offset="0.99" style="stop-color:#DBDBDB"/>
	</radialGradient>
	<ellipse class="st5" cx="24" cy="12.8" rx="4.3" ry="4.1"/>
	
		<radialGradient id="SVGID_5_" cx="8.6892" cy="406.2802" r="4.3212" gradientTransform="matrix(1 0 0 0.9413 0 -369.6455)" gradientUnits="userSpaceOnUse">
		<stop  offset="0" style="stop-color:#FFFFFF"/>
		<stop  offset="0.55" style="stop-color:#FDFDFD"/>
		<stop  offset="0.75" style="stop-color:#F6F6F6"/>
		<stop  offset="0.89" style="stop-color:#EBEBEB"/>
		<stop  offset="0.99" style="stop-color:#DBDBDB"/>
	</radialGradient>
	<ellipse class="st6" cx="8.7" cy="12.8" rx="4.3" ry="4.1"/>
	<path class="st4" d="M25.2,12.7c0,0.7-0.5,1.2-1.2,1.2s-1.2-0.5-1.2-1.2s0.5-1.2,1.2-1.2S25.2,12,25.2,12.7z"/>
	<path class="st4" d="M9.9,12.5c0,0.7-0.5,1.2-1.2,1.2s-1.2-0.5-1.2-1.2s0.5-1.2,1.2-1.2S9.9,11.9,9.9,12.5z"/>
</g>
<g>
	<g>
		<path class="st7" d="M30.9,12.6l-2.8,1.5c-0.6,0.3-1.1,1.1-1.1,1.7L26.7,19l-2.3-2.1c-0.4-0.4-1-0.6-1.6-0.6c-0.1,0-0.3,0-0.4,0
			L19.3,17l1.3-2.9c0.3-0.6,0.2-1.5-0.1-2.1l-1.6-2.7L22,9.7c0.1,0,0.2,0,0.2,0c0.6,0,1.3-0.3,1.7-0.8L26,6.5l0.6,3.1
			c0.1,0.7,0.7,1.3,1.3,1.6L30.9,12.6z"/>
		<path class="st7" d="M13.9,9.2l-1.6,2.7c-0.3,0.6-0.3,1.5,0,2.1l1.4,2.8l-3.1-0.6c-0.7-0.1-1.5,0.1-2,0.6L6.3,19L6,15.8
			c-0.1-0.7-0.6-1.4-1.2-1.7L2,12.6l2.9-1.3c0.6-0.3,1.2-1,1.3-1.6l0.6-3.1l2.1,2.3c0.4,0.5,1.3,0.8,1.9,0.7L13.9,9.2z"/>
		
			<linearGradient id="SVGID_6_" gradientUnits="userSpaceOnUse" x1="2.4272" y1="50.6992" x2="10.6884" y2="34.3162" gradientTransform="matrix(0.9999 -8.256773e-03 -8.256773e-03 -0.9999 17.2493 54.1622)">
			<stop  offset="0" style="stop-color:#4C0C63"/>
			<stop  offset="1" style="stop-color:#FFFFFF"/>
		</linearGradient>
		<path class="st8" d="M30.9,12.6l-2.8,1.5c-0.6,0.3-1.1,1.1-1.1,1.7L26.7,19l-2.3-2.1c-0.4-0.4-1-0.6-1.6-0.6c-0.1,0-0.3,0-0.4,0
			L19.3,17l1.3-2.9c0.3-0.6,0.2-1.5-0.1-2.1l-1.6-2.7L22,9.7c0.1,0,0.2,0,0.2,0c0.6,0,1.3-0.3,1.7-0.8l2.3-2.5l0.4,3.2
			c0.1,0.7,0.7,1.3,1.3,1.6L30.9,12.6z"/>
		
			<linearGradient id="SVGID_7_" gradientUnits="userSpaceOnUse" x1="-12.5655" y1="50.5869" x2="-2.8578" y2="31.1708" gradientTransform="matrix(0.9999 -8.256773e-03 -8.256773e-03 -0.9999 17.2493 54.1622)">
			<stop  offset="0" style="stop-color:#4C0C63"/>
			<stop  offset="1" style="stop-color:#FFFFFF"/>
		</linearGradient>
		<path class="st9" d="M13.9,9.2l-1.6,2.7c-0.3,0.6-0.3,1.5,0,2.1l1.4,2.8l-3.1-0.6c-0.7-0.1-1.5,0.1-2,0.6L6.3,19L6,15.8
			c-0.1-0.7-0.6-1.4-1.2-1.7L2,12.6l2.9-1.3c0.6-0.3,1.2-1,1.3-1.6l0.5-3.3l2.2,2.5c0.4,0.5,1.3,0.8,1.9,0.7L13.9,9.2z"/>
		<path class="st10" d="M20.1,12c-2.5-1.8-4.6-2-7.1-0.1l1-1.8c2.1-0.8,4.9,0,4.9,0L20.1,12z"/>
		<path class="st11" d="M19.5,13.6c0.1-0.2,0.1-0.7,0-0.9l-0.2-0.3l0,0l-1.2-2l0,0l-0.5-0.8c-0.2-0.4-0.3-0.8-0.1-1.1
			C17.7,8.1,18.1,8,18.6,8l3.6,0.4c0.3,0,0.7-0.1,0.8-0.3l2.4-2.7C25.7,5.1,26,5,26.2,5c0.4,0,0.8,0.2,1,0.9l0.7,3.5
			c0.1,0.3,0.3,0.6,0.6,0.7l3.3,1.4c0.4,0.2,0.7,0.5,0.7,0.9s-0.2,0.7-0.6,1l-3.1,1.7c-0.2,0.1-0.5,0.5-0.5,0.8L28,19.5
			c-0.1,0.7-0.5,1-1,1c-0.2,0-0.5-0.1-0.8-0.3l-2.6-2.4c-0.2-0.2-0.6-0.3-0.9-0.2l-3.5,0.8c-0.5,0.1-0.9,0-1.2-0.4
			c-0.1-0.2-0.3-0.5,0-1.1L19.5,13.6z M22.3,9.7c-0.1,0-0.2,0-0.2,0L19,9.3l1.6,2.7c0.3,0.6,0.4,1.5,0.1,2.1L19.3,17l3.1-0.7
			c0.1,0,0.3,0,0.4,0c0.6,0,1.2,0.2,1.6,0.6l2.3,2.1l0.3-3.1c0.1-0.7,0.6-1.4,1.1-1.7l2.8-1.5L28,11.3c-0.6-0.3-1.2-1-1.3-1.6
			l-0.6-3.1L24,9C23.6,9.4,22.9,9.7,22.3,9.7z"/>
		<path class="st11" d="M12.4,11.9L14,9.2l-3.1,0.4C10.2,9.7,9.4,9.4,9,8.9L6.7,6.6L6.2,9.7C6,10.3,5.5,11,4.9,11.3L2,12.6l2.8,1.5
			c0.6,0.3,1.1,1,1.2,1.7L6.3,19l2.3-2.2c0.5-0.4,1.3-0.7,2-0.6l3.1,0.6L12.3,14C12,13.4,12,12.5,12.4,11.9z M15.3,8.3
			c0.2,0.3,0.2,0.7,0,1.1l-0.4,0.8l-1.2,2l0,0l-0.2,0.3c-0.1,0.2-0.1,0.7,0,0.9l1.6,3.2c0.3,0.5,0.1,0.9,0,1.1
			c-0.2,0.4-0.7,0.5-1.2,0.4l-3.5-0.7c-0.2-0.1-0.7,0.1-0.9,0.2l-2.6,2.5c-0.3,0.3-0.6,0.4-0.8,0.4c-0.4,0-0.9-0.3-1-1L4.7,16
			c0-0.3-0.3-0.6-0.5-0.8L1,13.5c-0.4-0.2-0.6-0.6-0.6-1s0.3-0.7,0.7-0.9l3.3-1.5C4.6,10,4.9,9.6,5,9.4l0.6-3.5C5.7,5.3,6.2,5,6.5,5
			C6.7,5,7,5.1,7.3,5.4l2.4,2.7c0.2,0.2,0.5,0.3,0.8,0.3l3.6-0.5C14.7,7.8,15.1,8,15.3,8.3z"/>
		<linearGradient id="SVGID_8_" gradientUnits="userSpaceOnUse" x1="26" y1="12.85" x2="31.2" y2="12.85">
			<stop  offset="0" style="stop-color:#4C0C63"/>
			<stop  offset="1" style="stop-color:#FFFFFF"/>
		</linearGradient>
		<path class="st12" d="M30.9,12.5L29,11.7l-1-0.4c-0.3-0.1-0.6-0.3-0.8-0.6c-0.3-0.3-0.4-0.6-0.5-0.9l-0.2-1L26,6.7l0.3,2.1l0.2,1
			c0.1,0.4,0.3,0.7,0.5,1c0.3,0.3,0.6,0.5,0.9,0.7l1,0.4l1.6,0.8L29,13.5L28.1,14c-0.3,0.2-0.6,0.5-0.8,0.8c-0.2,0.3-0.4,0.6-0.4,1
			l-0.1,1.1L26.7,19l0.3-2.1l0.1-1c0.1-0.3,0.2-0.6,0.4-0.9c0.2-0.3,0.4-0.5,0.7-0.7l0.9-0.5l1.8-1l0.3-0.2L30.9,12.5z"/>
		<linearGradient id="SVGID_9_" gradientUnits="userSpaceOnUse" x1="18.6" y1="12.8" x2="26.7" y2="12.8">
			<stop  offset="0" style="stop-color:#4C0C63"/>
			<stop  offset="1" style="stop-color:#FFFFFF"/>
		</linearGradient>
		<path class="st13" d="M26.1,6.6l-1.4,1.6L24,9c-0.2,0.3-0.6,0.5-0.9,0.6S22.4,9.8,22,9.8l-1-0.1l-2.1-0.2L19,9.3l1.1,1.8l0.5,0.9
			c0.2,0.3,0.3,0.7,0.3,1.1c0,0.4,0,0.7-0.2,1.1l-0.4,1L19.4,17l-0.2-0.2l2.1-0.4l1-0.2c0.4-0.1,0.7,0,1.1,0.1
			c0.3,0.1,0.7,0.3,1,0.5l0.8,0.7l1.5,1.5l-1.6-1.4l-0.8-0.7c-0.3-0.2-0.6-0.4-0.9-0.5c-0.7-0.2-1.3,0.1-2,0.2l-2.1,0.5L19,17.2
			l0.1-0.3L20,15l0.4-1c0.1-0.3,0.2-0.6,0.2-1c0-0.3-0.1-0.7-0.3-0.9l-0.5-0.9l-1.1-1.8l-0.1-0.2h0.3L21,9.5l1,0.1
			c0.3,0,0.7,0,1-0.1c0.7-0.2,1.1-0.8,1.6-1.3L26.1,6.6z"/>
		
			<linearGradient id="SVGID_10_" gradientUnits="userSpaceOnUse" x1="10.4492" y1="11.6425" x2="15.6492" y2="11.6425" gradientTransform="matrix(0.8493 -0.528 0.528 0.8493 -5.1073 7.5898)">
			<stop  offset="0" style="stop-color:#4C0C63"/>
			<stop  offset="1" style="stop-color:#FFFFFF"/>
		</linearGradient>
		<path class="st14" d="M13.9,9.1l-2,0.3l-1.1,0.2c-0.3,0.1-0.7,0.1-1-0.1C9.4,9.4,9.1,9.2,8.9,9L8.2,8.3L6.7,6.7L8,8.4l0.7,0.7
			c0.3,0.3,0.6,0.4,1,0.6c0.4,0.1,0.8,0.1,1.1,0.1l1.1-0.2l1.8-0.2l-0.8,1.5l-0.5,0.9c-0.1,0.3-0.2,0.7-0.3,1.1c0,0.4,0,0.7,0.2,1.1
			l0.5,1l1,1.8l-0.9-1.9L12.5,14c-0.1-0.3-0.1-0.6-0.1-1c0-0.4,0.1-0.6,0.2-1l0.5-0.9l1-1.8L14.2,9L13.9,9.1z"/>
		
			<linearGradient id="SVGID_11_" gradientUnits="userSpaceOnUse" x1="3.0492" y1="11.5926" x2="11.1492" y2="11.5926" gradientTransform="matrix(0.8493 -0.528 0.528 0.8493 -5.1073 7.5898)">
			<stop  offset="0" style="stop-color:#4C0C63"/>
			<stop  offset="1" style="stop-color:#FFFFFF"/>
		</linearGradient>
		<path class="st15" d="M6.7,6.6L6.4,8.7l-0.2,1c0,0.4-0.2,0.7-0.4,1s-0.5,0.5-0.8,0.8L4,11.9l-1.9,0.9l0-0.2L4,13.6l0.9,0.5
			c0.3,0.1,0.6,0.4,0.8,0.8c0.2,0.3,0.4,0.6,0.4,1L6.3,17l0.2,2l-0.3-0.1l1.6-1.4l0.7-0.7c0.3-0.3,0.6-0.4,1-0.5
			c0.3-0.1,0.8-0.1,1.1-0.1l1,0.2l2.1,0.5l-2.1-0.3l-1-0.2c-0.4,0-0.7,0-1,0.1c-0.7,0.2-1.1,0.8-1.6,1.2l-1.5,1.5l-0.2,0.2L6.2,19
			L6,17l-0.2-1.1c-0.1-0.3-0.1-0.6-0.4-1c-0.2-0.3-0.5-0.5-0.7-0.6l-0.9-0.5l-1.9-0.9l-0.2-0.1L2,12.6l1.9-0.9l0.9-0.4
			c0.3-0.2,0.6-0.4,0.8-0.6c0.5-0.5,0.5-1.3,0.7-1.9L6.7,6.6z"/>
	</g>
</g>
</svg>
