<?xml version="1.0" encoding="utf-8"?>
<!-- Generator: Adobe Illustrator 25.0.1, SVG Export Plug-In . SVG Version: 6.00 Build 0)  -->
<svg version="1.1" id="Layer_1" xmlns="http://www.w3.org/2000/svg" xmlns:xlink="http://www.w3.org/1999/xlink" x="0px" y="0px"
	 viewBox="0 0 32.7 36" style="enable-background:new 0 0 32.7 36;" xml:space="preserve">
<style type="text/css">
	.st0{opacity:0.66;}
	.st1{fill:url(#SVGID_1_);}
	.st2{fill:url(#SVGID_2_);}
	.st3{opacity:0.33;fill:url(#SVGID_3_);enable-background:new    ;}
	.st4{fill:url(#SVGID_4_);}
	.st5{fill:#7B5C22;}
	.st6{fill:url(#SVGID_5_);}
	.st7{fill:#FF5C5C;}
	.st8{fill:#F74B4B;}
	.st9{fill:#FFFFFF;}
	.st10{fill:#AFD3DD;}
</style>
<g>
	<g>
		<g id="Слой_2">
			<g id="Layer_1_1_">
				<g class="st0">
					
						<radialGradient id="SVGID_1_" cx="16" cy="1865.4839" r="10.6847" gradientTransform="matrix(1 0 0 0.213 0 -363.8433)" gradientUnits="userSpaceOnUse">
						<stop  offset="0" style="stop-color:#000000"/>
						<stop  offset="1" style="stop-color:#FFFFFF;stop-opacity:0"/>
					</radialGradient>
					<ellipse class="st1" cx="16" cy="33.6" rx="10.8" ry="2.4"/>
				</g>
				
					<radialGradient id="SVGID_2_" cx="-2342.2004" cy="212.6427" r="11.7272" gradientTransform="matrix(-1.4993 2.381940e-04 2.348441e-04 1.5207 -3496.5979 -307.4442)" gradientUnits="userSpaceOnUse">
					<stop  offset="0" style="stop-color:#FBEC29"/>
					<stop  offset="0.14" style="stop-color:#FBE725"/>
					<stop  offset="0.31" style="stop-color:#FCD81B"/>
					<stop  offset="0.5" style="stop-color:#FEBE0A"/>
					<stop  offset="0.5" style="stop-color:#FEBE0A"/>
					<stop  offset="1" style="stop-color:#FD7F18"/>
				</radialGradient>
				<ellipse class="st2" cx="16.1" cy="21.3" rx="12.1" ry="12.3"/>
				<g>
					
						<linearGradient id="SVGID_3_" gradientUnits="userSpaceOnUse" x1="-2342.1267" y1="208.3804" x2="-2342.1267" y2="213.9756" gradientTransform="matrix(-1.5 0 0 1.5 -3496.99 -302.85)">
						<stop  offset="0" style="stop-color:#FFFFFF"/>
						<stop  offset="1" style="stop-color:#FFFFFF"/>
					</linearGradient>
					<path class="st3" d="M16.2,18.4c4.1,0,8.9-0.3,8.9-3s-4.8-5.6-8.9-5.6s-8.9,2.7-8.9,5.6S12.1,18.4,16.2,18.4z"/>
				</g>
				<g>
					
						<radialGradient id="SVGID_4_" cx="-2436.79" cy="403.5149" r="4.4055" gradientTransform="matrix(-1 0 0 1.0143 -2415.1899 -389.991)" gradientUnits="userSpaceOnUse">
						<stop  offset="0" style="stop-color:#FFFFFF"/>
						<stop  offset="0.55" style="stop-color:#FDFDFD"/>
						<stop  offset="0.75" style="stop-color:#F6F6F6"/>
						<stop  offset="0.89" style="stop-color:#EBEBEB"/>
						<stop  offset="0.99" style="stop-color:#DBDBDB"/>
					</radialGradient>
					<ellipse class="st4" cx="21.6" cy="19.3" rx="4.4" ry="4.5"/>
					<path class="st5" d="M19.2,20.7c0,1,0.8,1.8,1.8,1.8s1.8-0.8,1.8-1.8c0-1-0.8-1.8-1.8-1.8S19.2,19.7,19.2,20.7z"/>
				</g>
				<g>
					
						<radialGradient id="SVGID_5_" cx="-1885.8374" cy="403.5149" r="4.4035" gradientTransform="matrix(1 0 0 1.0143 1896.3821 -389.991)" gradientUnits="userSpaceOnUse">
						<stop  offset="0" style="stop-color:#FFFFFF"/>
						<stop  offset="0.55" style="stop-color:#FDFDFD"/>
						<stop  offset="0.75" style="stop-color:#F6F6F6"/>
						<stop  offset="0.89" style="stop-color:#EBEBEB"/>
						<stop  offset="0.99" style="stop-color:#DBDBDB"/>
					</radialGradient>
					<ellipse class="st6" cx="10.5" cy="19.3" rx="4.4" ry="4.5"/>
					<path class="st5" d="M11.1,18.9c-1,0-1.8,0.8-1.8,1.8c0,1,0.8,1.8,1.8,1.8s1.8-0.8,1.8-1.8C12.9,19.7,12.1,18.9,11.1,18.9z"/>
				</g>
				<ellipse class="st5" cx="16" cy="27.6" rx="2.9" ry="2.8"/>
			</g>
		</g>
	</g>
</g>
<g>
	<g>
		<g>
			<path class="st7" d="M10.4,6.7c2-1.4,2.8-3.7,5.1-4.9c1.2-0.6,2.4-0.1,3.6-0.5c1.3-0.5,1.1-1.6,3-1.3c3.3,0.4,2.6,2.6,3.3,4.4
				c1.2,1.1,0.6,1.3,0.5,2.5c-0.3,1.5,0.9,2.5,0.6,4.3c0,0.2-8,0.2-7.9,0.3L6.5,11C6.5,8.7,8.3,8.1,10.4,6.7z"/>
		</g>
		<g>
			<path class="st8" d="M19.6,8.8c0.6-0.4,3.6-0.6,2.5-1.5c-0.4-0.2-1.2-0.1-1.7-0.2c-0.6,0-1.1-0.2-1.6-0.4C18,6.5,15,5.9,15.8,5.2
				c0.9-0.8,3.4,0.5,4.5,0.4c0-0.4-0.3-0.5-0.6-0.6c-0.8-0.4-4.1-1.1-3.2-2.2c0.5-0.6,2.4,1,3.3,1c0.6,0.1,3.8,0.2,5.5,0.8
				c0,0,0,0,0,0c0.3,1,0.7,1.5,0.4,2.5c-0.2,1.2,0.1,1.4,0.4,2.6c0.2,0.7,0.2,1.8,0,2.4l-7.7-0.4c-0.1-0.1-0.2-0.2-0.3-0.3
				C17.6,10.4,18.7,9.3,19.6,8.8z"/>
		</g>
	</g>
	<g>
		<g>
			<path class="st9" d="M23.7,4.9c-0.3-0.5-0.5-1.1-0.5-1.7c0-1.7,1.4-3.1,3.1-3.1c0.4,0,0.8,0.1,1.2,0.2c0.2,0.4,0.3,0.8,0.2,1.2
				C27.5,3.7,25.6,4.6,23.7,4.9z"/>
		</g>
		<path class="st10" d="M27.7,1.5c0-0.4-0.1-0.8-0.2-1.2c1.1,0.5,1.9,1.6,1.9,2.9c0,1.7-1.4,3.1-3.1,3.1c-1.1,0-2-0.6-2.6-1.4
			C25.6,4.6,27.5,3.7,27.7,1.5z"/>
	</g>
	<g>
		<g>
			<path class="st10" d="M3.5,14c-0.3-1.3-0.3-2.7,3.2-3.1c2.6-0.3,6.8,0,9.5,0.1c3.4,0.1,7,0.1,10.4,0.5c1.3,1,1.3,2.5,0.2,3.4
				c-1.4,1.1-4.9,0-7.7-0.1c-3-0.1-5.9-0.1-9,0.1c-1.5,0.1-3.6,0.1-4.7,0.6C4.2,15.1,3.6,14.6,3.5,14z"/>
		</g>
	</g>
	<g>
		<g>
			<path class="st9" d="M4,13.8C4,13.8,4,13.7,4,13.8c-0.2-0.6-0.1-1.2,0.3-1.6c0.4-0.4,0.9-0.7,1.4-0.8c0.5-0.1,1.1-0.1,1.7-0.1
				c2.2,0,4.5-0.1,6.7,0c2.3,0,4.6,0.1,6.9,0.2c0.1,0,0.2,0,0.3,0c0.9,0,1.8,0.1,2.6,0.1c0.8,0.1,1.8,0,2.4,0.7
				c0.2,0.2,0.4,0.5,0.1,0.7c-0.1,0.1-0.3,0.1-0.5,0.1c-3.2,0-6.3,0-9.5,0c-1.7,0-3.5-0.1-5.2,0c-1.1,0.1-2.2,0.3-3.2,0.6
				c-0.5,0.2-1.1,0.3-1.6,0.6c-0.5,0.2-0.9,0.4-1.4,0.3C4.5,14.4,4.2,14.2,4,13.8z"/>
		</g>
	</g>
</g>
</svg>
