<?xml version="1.0" encoding="utf-8"?>
<!-- Generator: Adobe Illustrator 25.0.1, SVG Export Plug-In . SVG Version: 6.00 Build 0)  -->
<svg version="1.1" id="Layer_1" xmlns="http://www.w3.org/2000/svg" xmlns:xlink="http://www.w3.org/1999/xlink" x="0px" y="0px"
	 viewBox="0 0 32.7 36.7" style="enable-background:new 0 0 32.7 36.7;" xml:space="preserve">
<style type="text/css">
	.st0{opacity:0.66;}
	.st1{fill:url(#SVGID_1_);}
	.st2{fill:url(#SVGID_2_);}
	.st3{opacity:0.33;fill:url(#SVGID_3_);enable-background:new    ;}
	.st4{fill:#7B5C22;}
	.st5{fill:#0CBAFF;}
	.st6{fill:#FF5C5C;}
	.st7{fill:#F74B4B;}
	.st8{fill:#FFFFFF;}
	.st9{fill:#AFD3DD;}
</style>
<g>
	<g>
		<g>
			<g id="Слой_2">
				<g id="Layer_1_1_">
					<g class="st0">
						
							<radialGradient id="SVGID_1_" cx="15.7604" cy="1855.6738" r="11.5151" gradientTransform="matrix(1 0 0 0.21 0 -355.71)" gradientUnits="userSpaceOnUse">
							<stop  offset="0" style="stop-color:#000000"/>
							<stop  offset="1" style="stop-color:#FFFFFF;stop-opacity:0"/>
						</radialGradient>
						<ellipse class="st1" cx="15.7" cy="34.1" rx="11.6" ry="2.6"/>
					</g>
					
						<radialGradient id="SVGID_2_" cx="-2715.3386" cy="210.127" r="12.6459" gradientTransform="matrix(-1.5 0 0 1.5 -4057.5701 -300.85)" gradientUnits="userSpaceOnUse">
						<stop  offset="0" style="stop-color:#FBEC29"/>
						<stop  offset="0.14" style="stop-color:#FBE725"/>
						<stop  offset="0.31" style="stop-color:#FCD81B"/>
						<stop  offset="0.5" style="stop-color:#FEBE0A"/>
						<stop  offset="0.5" style="stop-color:#FEBE0A"/>
						<stop  offset="1" style="stop-color:#FD7F18"/>
					</radialGradient>
					<circle class="st2" cx="15.7" cy="20.4" r="13.1"/>
					<g>
						
							<linearGradient id="SVGID_3_" gradientUnits="userSpaceOnUse" x1="-2715.571" y1="206.0258" x2="-2715.571" y2="211.9744" gradientTransform="matrix(-1.5 0 0 1.5 -4057.5701 -300.85)">
							<stop  offset="0" style="stop-color:#FFFFFF"/>
							<stop  offset="1" style="stop-color:#FFFFFF"/>
						</linearGradient>
						<path class="st3" d="M15.7,17.4c4.4,0,9.6-0.3,9.6-3.2s-5.2-5.9-9.6-5.9S6.2,11.1,6.2,14S11.4,17.4,15.7,17.4z"/>
					</g>
					<circle class="st4" cx="11.2" cy="18.1" r="1.8"/>
					<path class="st4" d="M22.1,18.1c0,1-0.9,1.8-1.8,1.8c-1,0-1.8-0.9-1.8-1.8c0-1,0.8-1.8,1.8-1.8C21.2,16.3,22.1,17.2,22.1,18.1
						L22.1,18.1z"/>
					<path class="st4" d="M11.2,27.3c-0.1,0-0.2,0-0.3-0.1c-0.2-0.2-0.2-0.4,0-0.6c1.2-1.3,2.9-2.2,4.7-2.2c1.8,0.1,3.6,0.9,5,2.2
						c0.2,0.2,0.2,0.4,0.1,0.6c-0.2,0.2-0.4,0.2-0.6,0.1c0,0,0,0-0.1-0.1c-1.2-1.1-2.7-1.8-4.3-1.9c-1.5,0-3,0.8-4.1,1.9
						C11.4,27.3,11.3,27.4,11.2,27.3z"/>
					<path class="st5" d="M9.4,25.2c-0.1,1.5-1.4,2.7-2.9,2.6c-1.4-0.1-2.6-1.2-2.6-2.6c0-1.5,2.8-6.4,2.8-6.4S9.4,23.6,9.4,25.2z"
						/>
				</g>
			</g>
		</g>
	</g>
	<g>
		<g>
			<g>
				<path class="st6" d="M10.2,7.1c2.2-1.5,3-4,5.4-5.2c1.3-0.6,2.5-0.1,3.9-0.6C21,0.9,20.7-0.2,22.8,0c3.5,0.5,2.8,2.8,3.5,4.7
					c1.3,1.2,0.6,1.4,0.5,2.7c-0.3,1.6,0.9,2.7,0.6,4.6c0,0.2-8.6,0.2-8.5,0.3L6.1,11.7C6.1,9.3,8,8.6,10.2,7.1z"/>
			</g>
			<g>
				<path class="st7" d="M20.2,9.3c0.6-0.4,3.9-0.6,2.7-1.6c-0.4-0.2-1.3-0.1-1.8-0.2c-0.6,0-1.2-0.2-1.8-0.4
					c-0.8-0.2-4.1-0.9-3.2-1.7c1-0.9,3.7,0.6,4.9,0.4c0-0.4-0.3-0.5-0.7-0.7c-0.8-0.4-4.4-1.2-3.5-2.4c0.5-0.6,2.6,1,3.6,1.1
					c0.7,0.1,4.1,0.2,5.9,0.8c0,0,0,0,0,0c0.4,1,0.7,1.6,0.5,2.7c-0.2,1.3,0.1,1.5,0.5,2.8c0.2,0.7,0.2,1.9,0,2.6l-8.3-0.4
					c-0.1-0.1-0.2-0.2-0.3-0.3C18.1,11,19.2,9.9,20.2,9.3z"/>
			</g>
		</g>
		<g>
			<g>
				<path class="st8" d="M24.6,5.2C24.2,4.7,24,4.1,24,3.4c0-1.8,1.5-3.3,3.3-3.3c0.4,0,0.9,0.1,1.3,0.2c0.2,0.4,0.3,0.9,0.3,1.3
					C28.7,4,26.6,4.9,24.6,5.2z"/>
			</g>
			<path class="st9" d="M28.9,1.6c0-0.4-0.1-0.9-0.3-1.3c1.2,0.5,2.1,1.7,2.1,3.1c0,1.8-1.5,3.3-3.3,3.3c-1.2,0-2.2-0.6-2.8-1.5
				C26.6,4.9,28.7,4,28.9,1.6z"/>
		</g>
		<g>
			<g>
				<path class="st9" d="M2.8,14.9c-0.3-1.4-0.3-2.9,3.4-3.3c2.8-0.3,7.4,0,10.2,0.1c3.7,0.1,7.5,0.2,11.2,0.5
					c1.4,1.1,1.4,2.6,0.2,3.6c-1.5,1.2-5.2,0-8.4-0.1c-3.3-0.1-6.4-0.1-9.7,0.1c-1.6,0.1-3.9,0.1-5.1,0.6C3.6,16,2.9,15.6,2.8,14.9z
					"/>
			</g>
		</g>
		<g>
			<g>
				<path class="st8" d="M3.3,14.6C3.3,14.6,3.3,14.6,3.3,14.6c-0.2-0.6-0.1-1.3,0.3-1.7s1-0.7,1.5-0.9s1.2-0.1,1.8-0.2
					c2.4,0,4.8-0.1,7.2,0c2.5,0.1,4.9,0.2,7.4,0.2c0.1,0,0.2,0,0.3,0c1,0,1.9,0.1,2.9,0.1c0.9,0.1,2,0,2.6,0.7
					c0.2,0.2,0.4,0.6,0.1,0.8c-0.2,0.1-0.3,0.1-0.5,0.1c-3.4,0-6.8,0-10.2,0c-1.9,0-3.7-0.2-5.6,0c-1.2,0.1-2.4,0.3-3.5,0.7
					c-0.6,0.2-1.2,0.4-1.7,0.6c-0.5,0.2-1,0.5-1.6,0.3C3.9,15.4,3.5,15,3.3,14.6z"/>
			</g>
		</g>
	</g>
</g>
</svg>
